<?xml version="1.0" encoding="utf-8"?>
<!-- Generator: Adobe Illustrator 22.0.1, SVG Export Plug-In . SVG Version: 6.00 Build 0)  -->
<svg version="1.1" id="Warstwa_1" xmlns="http://www.w3.org/2000/svg" xmlns:xlink="http://www.w3.org/1999/xlink" x="0px" y="0px"
	 viewBox="0 0 50 50" style="enable-background:new 0 0 50 50;" xml:space="preserve">
<style type="text/css">
	.st0{fill:none;stroke:#000000;stroke-miterlimit:10;}
</style>
<path class="st0" d="M11,27.5c0.4-0.7,4.3-7.3,13.4-8.4c1.3-0.2,3-0.2,5,0"/>
<path class="st0" d="M11,27c0.4,0.7,4.3,7.3,13.4,8.4c1.3,0.2,3,0.2,5,0"/>
<path class="st0" d="M43,27.5c-0.4-0.7-4.3-7.3-13.4-8.4c-1.3-0.2-3-0.2-5,0"/>
<path class="st0" d="M43,27c-0.4,0.7-4.3,7.3-13.4,8.4c-1.3,0.2-3,0.2-5,0"/>
<circle class="st0" cx="26.5" cy="27.5" r="4"/>
<line class="st0" x1="7.5" y1="24.5" x2="11.5" y2="27.5"/>
<line class="st0" x1="10.9" y1="20.1" x2="14.1" y2="23.9"/>
<line class="st0" x1="16.6" y1="16.7" x2="18.4" y2="21.3"/>
<line class="st0" x1="23.3" y1="14.5" x2="23.7" y2="19.5"/>
<line class="st0" x1="30.1" y1="14.6" x2="28.9" y2="19.4"/>
<line class="st0" x1="46.9" y1="30.1" x2="42.8" y2="27.2"/>
<line class="st0" x1="43.7" y1="34.6" x2="40.3" y2="30.9"/>
<line class="st0" x1="38.1" y1="38.2" x2="36.2" y2="33.6"/>
<line class="st0" x1="31.5" y1="40.6" x2="30.9" y2="35.7"/>
<line class="st0" x1="24.7" y1="40.8" x2="25.7" y2="35.9"/>
</svg>
